{
  "accessors": [
    {
      "bufferView": 2,
      "componentType": 5126,
      "count": 17558,
      "max": [
        1.0729148387908936,
        1.6944565773010254,
        1.0715383291244507
      ],
      "min": [
        -1.0875592231750488,
        0.0011298060417175293,
        -1.0720617771148682
      ],
      "type": "VEC3"
    },
    {
      "bufferView": 2,
      "byteOffset": 210696,
      "componentType": 5126,
      "count": 17558,
      "max": [
        0.999699056148529,
        0.9996709823608398,
        1.0
      ],
      "min": [
        -0.999699056148529,
        -1.0,
        -0.9999945759773254
      ],
      "type": "VEC3"
    },
    {
      "bufferView": 3,
      "componentType": 5126,
      "count": 17558,
      "max": [
        0.9822879433631897,
        0.9989272356033325,
        0.9996873140335083,
        1.0
      ],
      "min": [
        -0.9999996423721313,
        -0.9995392560958862,
        -0.9996814131736755,
        -1.0
      ],
      "type": "VEC4"
    },
    {
      "bufferView": 1,
      "componentType": 5126,
      "count": 17558,
      "max": [
        0.9762964248657227,
        0.7851822376251221
      ],
      "min": [
        0.023703813552856445,
        0.017395198345184326
      ],
      "type": "VEC2"
    },
    {
      "bufferView": 0,
      "componentType": 5125,
      "count": 77202,
      "type": "SCALAR"
    },
    {
      "bufferView": 2,
      "byteOffset": 421392,
      "componentType": 5126,
      "count": 448,
      "max": [
        0.14632122218608856,
        1.9522500038146973,
        0.13171681761741638
      ],
      "min": [
        -0.16425201296806335,
        1.6201319694519043,
        -0.12552812695503235
      ],
      "type": "VEC3"
    },
    {
      "bufferView": 2,
      "byteOffset": 426768,
      "componentType": 5126,
      "count": 448,
      "max": [
        0.9954919219017029,
        0.9901108145713806,
        0.9954918622970581
      ],
      "min": [
        -0.9954919219017029,
        -0.5417349338531494,
        -0.9954918622970581
      ],
      "type": "VEC3"
    },
    {
      "bufferView": 3,
      "byteOffset": 280928,
      "componentType": 5126,
      "count": 448,
      "max": [
        0.9966838955879211,
        0.48953917622566223,
        0.9974930286407471,
        1.0
      ],
      "min": [
        -0.994328498840332,
        -0.7747417688369751,
        -0.9965440630912781,
        1.0
      ],
      "type": "VEC4"
    },
    {
      "bufferView": 1,
      "byteOffset": 140464,
      "componentType": 5126,
      "count": 448,
      "max": [
        0.12331998348236084,
        0.10541963577270508
      ],
      "min": [
        0.01737964153289795,
        0.0173952579498291
      ],
      "type": "VEC2"
    },
    {
      "bufferView": 0,
      "byteOffset": 308808,
      "componentType": 5125,
      "count": 1320,
      "type": "SCALAR"
    },
    {
      "bufferView": 2,
      "byteOffset": 432144,
      "componentType": 5126,
      "count": 306,
      "max": [
        0.0943179726600647,
        0.4420336186885834,
        0.09431803226470947
      ],
      "min": [
        -0.09431803226470947,
        0.18412494659423828,
        -0.09431803226470947
      ],
      "type": "VEC3"
    },
    {
      "bufferView": 2,
      "byteOffset": 435816,
      "componentType": 5126,
      "count": 306,
      "max": [
        1.0,
        1.0,
        1.0
      ],
      "min": [
        -1.0,
        -1.0,
        -1.0
      ],
      "type": "VEC3"
    },
    {
      "bufferView": 3,
      "byteOffset": 288096,
      "componentType": 5126,
      "count": 306,
      "max": [
        1.0,
        0.10848704725503922,
        1.0,
        1.0
      ],
      "min": [
        -1.0,
        -0.10848699510097504,
        -1.0,
        1.0
      ],
      "type": "VEC4"
    },
    {
      "bufferView": 1,
      "byteOffset": 144048,
      "componentType": 5126,
      "count": 306,
      "max": [
        0.9841974973678589,
        0.7217692136764526
      ],
      "min": [
        0.015802472829818726,
        0.011588811874389648
      ],
      "type": "VEC2"
    },
    {
      "bufferView": 0,
      "byteOffset": 314088,
      "componentType": 5125,
      "count": 1200,
      "type": "SCALAR"
    }
  ],
  "asset": {
    "extras": {
      "author": "Lee Drake (https://sketchfab.com/CrowjanGames)",
      "license": "CC-BY-4.0 (http://creativecommons.org/licenses/by/4.0/)",
      "source": "https://sketchfab.com/3d-models/jack-o-lantern-95e7150f77d0456b8132e90e5e12cc34",
      "title": "Jack O Lantern"
    },
    "generator": "Sketchfab-12.68.0",
    "version": "2.0"
  },
  "bufferViews": [
    {
      "buffer": 0,
      "byteLength": 318888,
      "name": "floatBufferViews",
      "target": 34963
    },
    {
      "buffer": 0,
      "byteLength": 146496,
      "byteOffset": 318888,
      "byteStride": 8,
      "name": "floatBufferViews",
      "target": 34962
    },
    {
      "buffer": 0,
      "byteLength": 439488,
      "byteOffset": 465384,
      "byteStride": 12,
      "name": "floatBufferViews",
      "target": 34962
    },
    {
      "buffer": 0,
      "byteLength": 292992,
      "byteOffset": 904872,
      "byteStride": 16,
      "name": "floatBufferViews",
      "target": 34962
    }
  ],
  "buffers": [
    {
      "byteLength": 1197864,
      "uri": "scene.bin"
    }
  ],
  "images": [
    {
      "uri": "textures/Pumpkin_Mat_baseColor.png"
    },
    {
      "uri": "textures/Pumpkin_Mat_metallicRoughness.png"
    },
    {
      "uri": "textures/Pumpkin_Mat_emissive.png"
    },
    {
      "uri": "textures/Pumpkin_Mat_normal.png"
    },
    {
      "uri": "textures/P_Stem_Mat_baseColor.png"
    },
    {
      "uri": "textures/P_Stem_Mat_metallicRoughness.png"
    },
    {
      "uri": "textures/P_Stem_Mat_normal.png"
    },
    {
      "uri": "textures/Candle_Mat_baseColor.png"
    },
    {
      "uri": "textures/Candle_Mat_metallicRoughness.png"
    },
    {
      "uri": "textures/Candle_Mat_emissive.png"
    },
    {
      "uri": "textures/Candle_Mat_normal.png"
    }
  ],
  "materials": [
    {
      "doubleSided": true,
      "emissiveFactor": [
        0.44271260845508886,
        0.44271260845508886,
        0.44271260845508886
      ],
      "emissiveTexture": {
        "index": 2
      },
      "name": "Pumpkin_Mat",
      "normalTexture": {
        "index": 3
      },
      "occlusionTexture": {
        "index": 1
      },
      "pbrMetallicRoughness": {
        "baseColorTexture": {
          "index": 0
        },
        "metallicRoughnessTexture": {
          "index": 1
        }
      }
    },
    {
      "doubleSided": true,
      "name": "P_Stem_Mat",
      "normalTexture": {
        "index": 6
      },
      "occlusionTexture": {
        "index": 5
      },
      "pbrMetallicRoughness": {
        "baseColorTexture": {
          "index": 4
        },
        "metallicFactor": 0.0,
        "metallicRoughnessTexture": {
          "index": 5
        },
        "roughnessFactor": 0.6
      }
    },
    {
      "doubleSided": true,
      "emissiveFactor": [
        1.0,
        1.0,
        1.0
      ],
      "emissiveTexture": {
        "index": 9
      },
      "name": "Candle_Mat",
      "normalTexture": {
        "index": 10
      },
      "occlusionTexture": {
        "index": 8
      },
      "pbrMetallicRoughness": {
        "baseColorTexture": {
          "index": 7
        },
        "metallicFactor": 0.0,
        "metallicRoughnessTexture": {
          "index": 8
        }
      }
    }
  ],
  "meshes": [
    {
      "name": "Pumpkin_Pumpkin_Mat_0",
      "primitives": [
        {
          "attributes": {
            "NORMAL": 1,
            "POSITION": 0,
            "TANGENT": 2,
            "TEXCOORD_0": 3
          },
          "indices": 4,
          "material": 0,
          "mode": 4
        }
      ]
    },
    {
      "name": "Pumpkin_P_Stem_Mat_0",
      "primitives": [
        {
          "attributes": {
            "NORMAL": 6,
            "POSITION": 5,
            "TANGENT": 7,
            "TEXCOORD_0": 8
          },
          "indices": 9,
          "material": 1,
          "mode": 4
        }
      ]
    },
    {
      "name": "Candle_Candle_Mat_0",
      "primitives": [
        {
          "attributes": {
            "NORMAL": 11,
            "POSITION": 10,
            "TANGENT": 12,
            "TEXCOORD_0": 13
          },
          "indices": 14,
          "material": 2,
          "mode": 4
        }
      ]
    }
  ],
  "nodes": [
    {
      "children": [
        1
      ],
      "matrix": [
        20.264848709106445,
        0.0,
        0.0,
        0.0,
        0.0,
        4.499700325479071e-15,
        -20.264848709106445,
        0.0,
        0.0,
        20.264848709106445,
        4.499700325479071e-15,
        0.0,
        0.0,
        0.0,
        0.0,
        1.0
      ],
      "name": "Sketchfab_model"
    },
    {
      "children": [
        2
      ],
      "matrix": [
        0.009999999776482582,
        0.0,
        0.0,
        0.0,
        0.0,
        0.0,
        0.009999999776482582,
        0.0,
        0.0,
        -0.009999999776482582,
        0.0,
        0.0,
        0.0,
        0.0,
        0.0,
        1.0
      ],
      "name": "b20424db57264014962ede6c221c9d78.fbx"
    },
    {
      "children": [
        3,
        6
      ],
      "name": "RootNode"
    },
    {
      "children": [
        4,
        5
      ],
      "name": "Pumpkin"
    },
    {
      "mesh": 0,
      "name": "Pumpkin_Pumpkin_Mat_0"
    },
    {
      "mesh": 1,
      "name": "Pumpkin_P_Stem_Mat_0"
    },
    {
      "children": [
        7
      ],
      "name": "Candle"
    },
    {
      "mesh": 2,
      "name": "Candle_Candle_Mat_0"
    }
  ],
  "samplers": [
    {
      "magFilter": 9729,
      "minFilter": 9987,
      "wrapS": 10497,
      "wrapT": 10497
    }
  ],
  "scene": 0,
  "scenes": [
    {
      "name": "Sketchfab_Scene",
      "nodes": [
        0
      ]
    }
  ],
  "textures": [
    {
      "sampler": 0,
      "source": 0
    },
    {
      "sampler": 0,
      "source": 1
    },
    {
      "sampler": 0,
      "source": 2
    },
    {
      "sampler": 0,
      "source": 3
    },
    {
      "sampler": 0,
      "source": 4
    },
    {
      "sampler": 0,
      "source": 5
    },
    {
      "sampler": 0,
      "source": 6
    },
    {
      "sampler": 0,
      "source": 7
    },
    {
      "sampler": 0,
      "source": 8
    },
    {
      "sampler": 0,
      "source": 9
    },
    {
      "sampler": 0,
      "source": 10
    }
  ]
}
