{
	"nodes":[{
		"name":"play",
		"translation":[-167.63938903808595,
		60.59453201293945,
		48.34990692138672],
		"rotation":[0.7071067690849304,
		0.0,
		0.0,
		-0.7071067690849304],
		"scale":[1.0,
		1.0,
		1.0],
		"children":[1]
	},
	{
		"name":"Text Spline",
		"children":[2]
	},
	{
		"name":"1",
		"children":[3]
	},
	{
		"name":"PLAY",
		"children":[4,
		5,
		6,
		7]
	},
	{
		"name":"P",
		"mesh":0
	},
	{
		"name":"L",
		"translation":[83.66448974609375,
		0.0,
		-3.4750189464388899e-15],
		"rotation":[0.0,
		0.0,
		0.0,
		-1.0],
		"scale":[1.0,
		1.0,
		1.0],
		"mesh":1
	},
	{
		"name":"A",
		"translation":[145.52630615234376,
		0.0,
		-3.4750189464388899e-15],
		"rotation":[0.0,
		0.0,
		0.0,
		-1.0],
		"scale":[1.0,
		1.0,
		1.0],
		"mesh":2
	},
	{
		"name":"Y",
		"translation":[241.2742156982422,
		0.0,
		-3.4750189464388899e-15],
		"rotation":[0.0,
		0.0,
		0.0,
		-1.0],
		"scale":[1.0,
		1.0,
		1.0],
		"mesh":3
	},
	{
		"name":"Cube",
		"translation":[0.0,
		0.0,
		0.0],
		"rotation":[0.0,
		0.0,
		0.0,
		-1.0],
		"scale":[1.0,
		1.0,
		1.0],
		"mesh":4
	}],
	"asset":{
		"version":"2.0",
		"generator":"Created using the official Cinema 4D glTF Exporter 1.000x284978"
	},
	"scenes":[{
		"nodes":[0,
		8]
	}],
	"materials":[{
		"pbrMetallicRoughness":{
			"baseColorFactor":[1.0,
			0.4166136817108813,
			0.9611075787807255,
			1.0],
			"metallicFactor":0.49,
			"roughnessFactor":0.2
		},
		"emissiveFactor":[0.0,
		0.0,
		0.0],
		"alphaMode":"OPAQUE",
		"doubleSided":true,
		"name":"Blue Glossy"
	},
	{
		"pbrMetallicRoughness":{
			"baseColorFactor":[0.46188999652618836,
			0.8593875144025405,
			0.8593875144025405,
			1.0],
			"metallicFactor":0.0,
			"roughnessFactor":0.5
		},
		"emissiveFactor":[0.0,
		0.0,
		0.0],
		"alphaMode":"OPAQUE",
		"doubleSided":true,
		"name":"Mat"
	}],
	"meshes":[{
		"name":"P",
		"primitives":[{
			"attributes":{
				"POSITION":1,
				"NORMAL":2,
				"TEXCOORD_0":3
			},
			"indices":0,
			"material":0
		}]
	},
	{
		"name":"L",
		"primitives":[{
			"attributes":{
				"POSITION":5,
				"NORMAL":6,
				"TEXCOORD_0":7
			},
			"indices":4,
			"material":0
		}]
	},
	{
		"name":"A",
		"primitives":[{
			"attributes":{
				"POSITION":9,
				"NORMAL":10,
				"TEXCOORD_0":11
			},
			"indices":8,
			"material":0
		}]
	},
	{
		"name":"Y",
		"primitives":[{
			"attributes":{
				"POSITION":13,
				"NORMAL":14,
				"TEXCOORD_0":15
			},
			"indices":12,
			"material":0
		}]
	},
	{
		"name":"Cube",
		"primitives":[{
			"attributes":{
				"POSITION":17,
				"NORMAL":18,
				"TEXCOORD_0":19
			},
			"indices":16,
			"material":1
		}]
	}],
	"accessors":[{
		"bufferView":0,
		"type":"SCALAR",
		"componentType":5123,
		"count":16812,
		"byteOffset":0,
		"min":[0],
		"max":[3331]
	},
	{
		"bufferView":1,
		"type":"VEC3",
		"componentType":5126,
		"count":3332,
		"byteOffset":0,
		"min":[9.193900108337403,
		0.0,
		-24.0],
		"max":[80.3809585571289,
		91.93900299072266,
		0.0]
	},
	{
		"bufferView":1,
		"type":"VEC3",
		"componentType":5126,
		"count":3332,
		"byteOffset":12,
		"min":[-0.9972216486930847,
		-0.9972003102302551,
		-1.0],
		"max":[0.9972216486930847,
		0.9972001314163208,
		1.0]
	},
	{
		"bufferView":1,
		"type":"VEC2",
		"componentType":5126,
		"count":3332,
		"byteOffset":24,
		"min":[-0.043507110327482226,
		-0.04350712150335312],
		"max":[1.0,
		1.0435073375701905]
	},
	{
		"bufferView":2,
		"type":"SCALAR",
		"componentType":5123,
		"count":8628,
		"byteOffset":0,
		"min":[0],
		"max":[1709]
	},
	{
		"bufferView":3,
		"type":"VEC3",
		"componentType":5126,
		"count":1710,
		"byteOffset":0,
		"min":[7.61780309677124,
		0.0,
		-24.0],
		"max":[59.2349853515625,
		91.93900299072266,
		0.0]
	},
	{
		"bufferView":3,
		"type":"VEC3",
		"componentType":5126,
		"count":1710,
		"byteOffset":12,
		"min":[-0.9971961379051209,
		-0.9971938729286194,
		-0.9987672567367554],
		"max":[0.9971899390220642,
		0.997187614440918,
		0.9987672567367554]
	},
	{
		"bufferView":3,
		"type":"VEC2",
		"componentType":5126,
		"count":1710,
		"byteOffset":24,
		"min":[-0.04350711405277252,
		-0.04350711405277252],
		"max":[1.0,
		1.0435070991516114]
	},
	{
		"bufferView":4,
		"type":"SCALAR",
		"componentType":5123,
		"count":17568,
		"byteOffset":0,
		"min":[0],
		"max":[3493]
	},
	{
		"bufferView":5,
		"type":"VEC3",
		"componentType":5126,
		"count":3494,
		"byteOffset":0,
		"min":[1.2059900760650635,
		0.0,
		-24.0],
		"max":[94.53925323486328,
		93.51509857177735,
		0.0]
	},
	{
		"bufferView":5,
		"type":"VEC3",
		"componentType":5126,
		"count":3494,
		"byteOffset":12,
		"min":[-0.9971640110015869,
		-0.997221052646637,
		-1.0],
		"max":[0.9971867203712463,
		0.9972219467163086,
		1.0]
	},
	{
		"bufferView":5,
		"type":"VEC2",
		"componentType":5126,
		"count":3494,
		"byteOffset":24,
		"min":[-0.024846205487847329,
		-0.04177459329366684],
		"max":[1.0247982740402222,
		1.0184574127197266]
	},
	{
		"bufferView":6,
		"type":"SCALAR",
		"componentType":5123,
		"count":17268,
		"byteOffset":0,
		"min":[0],
		"max":[3494]
	},
	{
		"bufferView":7,
		"type":"VEC3",
		"componentType":5126,
		"count":3495,
		"byteOffset":0,
		"min":[8.537193298339844,
		0.0,
		-24.031219482421876],
		"max":[84.9779052734375,
		91.93900299072266,
		0.03121623583137989]
	},
	{
		"bufferView":7,
		"type":"VEC3",
		"componentType":5126,
		"count":3495,
		"byteOffset":12,
		"min":[-0.9993632435798645,
		-0.993681013584137,
		-1.0],
		"max":[0.9993345141410828,
		0.9972215890884399,
		1.0]
	},
	{
		"bufferView":7,
		"type":"VEC2",
		"componentType":5126,
		"count":3495,
		"byteOffset":24,
		"min":[-0.043507106602191928,
		-0.04350712150335312],
		"max":[0.9898215532302856,
		1.0435073375701905]
	},
	{
		"bufferView":8,
		"type":"SCALAR",
		"componentType":5123,
		"count":15876,
		"byteOffset":0,
		"min":[0],
		"max":[2819]
	},
	{
		"bufferView":9,
		"type":"VEC3",
		"componentType":5126,
		"count":2820,
		"byteOffset":0,
		"min":[-239.68885803222657,
		-41.58591842651367,
		-106.87467193603516],
		"max":[239.68885803222657,
		41.58591842651367,
		106.87467193603516]
	},
	{
		"bufferView":9,
		"type":"VEC3",
		"componentType":5126,
		"count":2820,
		"byteOffset":12,
		"min":[-0.9995209574699402,
		-0.9995387196540833,
		-0.9995387196540833],
		"max":[0.9995387196540833,
		0.9995387196540833,
		0.9995387196540833]
	},
	{
		"bufferView":9,
		"type":"VEC2",
		"componentType":5126,
		"count":2820,
		"byteOffset":24,
		"min":[-0.08344151079654694,
		-0.4809320569038391],
		"max":[1.187135100364685,
		1.4809319972991944]
	}],
	"bufferViews":[{
		"buffer":0,
		"byteOffset":0,
		"byteLength":33624,
		"target":34963
	},
	{
		"buffer":0,
		"byteOffset":33624,
		"byteLength":106624,
		"target":34962,
		"byteStride":32
	},
	{
		"buffer":1,
		"byteOffset":0,
		"byteLength":17256,
		"target":34963
	},
	{
		"buffer":1,
		"byteOffset":17256,
		"byteLength":54720,
		"target":34962,
		"byteStride":32
	},
	{
		"buffer":2,
		"byteOffset":0,
		"byteLength":35136,
		"target":34963
	},
	{
		"buffer":2,
		"byteOffset":35136,
		"byteLength":111808,
		"target":34962,
		"byteStride":32
	},
	{
		"buffer":3,
		"byteOffset":0,
		"byteLength":34536,
		"target":34963
	},
	{
		"buffer":3,
		"byteOffset":34536,
		"byteLength":111840,
		"target":34962,
		"byteStride":32
	},
	{
		"buffer":4,
		"byteOffset":0,
		"byteLength":31752,
		"target":34963
	},
	{
		"buffer":4,
		"byteOffset":31752,
		"byteLength":90240,
		"target":34962,
		"byteStride":32
	}],
	"buffers":[{
		"uri":"data:application/octet-stream;base64,",
		"byteLength":140248
	},
	{
		"uri":"data:application/octet-stream;base64,",
		"byteLength":71976
	},
	{
		"uri":"data:application/octet-stream;base64,",
		"byteLength":146944
	},
	{
		"uri":"data:application/octet-stream;base64,",
		"byteLength":146376
	},
	{
		"uri":"data:application/octet-stream;base64,",
		"byteLength":121992
	}]
}