{
	"nodes":[{
		"name":"btn",
		"translation":[-83.81969451904297,
		30.297266006469728,
		24.17495346069336],
		"rotation":[0.0,
		0.0,
		0.0,
		-1.0],
		"scale":[1.0,
		1.0,
		1.0],
		"children":[1,
		9]
	},
	{
		"name":"play",
		"translation":[-83.81969451904297,
		20.42983627319336,
		19.70210075378418],
		"rotation":[0.7071067690849304,
		0.0,
		0.0,
		-0.7071067690849304],
		"scale":[1.0,
		1.0,
		1.0],
		"children":[2]
	},
	{
		"name":"Text Spline",
		"children":[3]
	},
	{
		"name":"1",
		"children":[4]
	},
	{
		"name":"PLAY",
		"children":[5,
		6,
		7,
		8]
	},
	{
		"name":"P",
		"mesh":0
	},
	{
		"name":"L",
		"translation":[83.66448974609375,
		0.0,
		2.6372358107268434e-15],
		"rotation":[0.0,
		0.0,
		0.0,
		-1.0],
		"scale":[1.0,
		1.0,
		1.0],
		"mesh":1
	},
	{
		"name":"A",
		"translation":[145.52630615234376,
		0.0,
		2.6372358107268434e-15],
		"rotation":[0.0,
		0.0,
		0.0,
		-1.0],
		"scale":[1.0,
		1.0,
		1.0],
		"mesh":2
	},
	{
		"name":"Y",
		"translation":[241.2742156982422,
		0.0,
		2.6372358107268434e-15],
		"rotation":[0.0,
		0.0,
		0.0,
		-1.0],
		"scale":[1.0,
		1.0,
		1.0],
		"mesh":3
	},
	{
		"name":"Cube",
		"translation":[83.81969451904297,
		-30.297266006469728,
		-24.17495346069336],
		"rotation":[0.0,
		0.0,
		0.0,
		-1.0],
		"scale":[1.0,
		1.0,
		1.0],
		"mesh":4
	}],
	"asset":{
		"version":"2.0",
		"generator":"Created using the official Cinema 4D glTF Exporter 1.000x284978"
	},
	"scenes":[{
		"nodes":[0]
	}],
	"materials":[{
		"pbrMetallicRoughness":{
			"baseColorFactor":[0.020000000000000019,
			0.020000000000000019,
			1.0,
			1.0],
			"metallicFactor":0.49,
			"roughnessFactor":0.2
		},
		"emissiveFactor":[1.0,
		1.0,
		1.0],
		"alphaMode":"OPAQUE",
		"doubleSided":true,
		"name":"Blue Glossy"
	},
	{
		"pbrMetallicRoughness":{
			"baseColorFactor":[0.2546969618549765,
			0.26618705035971226,
			0.26618705035971226,
			1.0],
			"metallicFactor":0.0,
			"roughnessFactor":0.5
		},
		"emissiveFactor":[0.0,
		0.0,
		0.0],
		"alphaMode":"OPAQUE",
		"doubleSided":true,
		"name":"Mat"
	}],
	"meshes":[{
		"name":"P",
		"primitives":[{
			"attributes":{
				"POSITION":1,
				"NORMAL":2,
				"TEXCOORD_0":3
			},
			"indices":0,
			"material":0
		}]
	},
	{
		"name":"L",
		"primitives":[{
			"attributes":{
				"POSITION":5,
				"NORMAL":6,
				"TEXCOORD_0":7
			},
			"indices":4,
			"material":0
		}]
	},
	{
		"name":"A",
		"primitives":[{
			"attributes":{
				"POSITION":9,
				"NORMAL":10,
				"TEXCOORD_0":11
			},
			"indices":8,
			"material":0
		}]
	},
	{
		"name":"Y",
		"primitives":[{
			"attributes":{
				"POSITION":13,
				"NORMAL":14,
				"TEXCOORD_0":15
			},
			"indices":12,
			"material":0
		}]
	},
	{
		"name":"Cube",
		"primitives":[{
			"attributes":{
				"POSITION":17,
				"NORMAL":18,
				"TEXCOORD_0":19
			},
			"indices":16,
			"material":1
		}]
	}],
	"accessors":[{
		"bufferView":0,
		"type":"SCALAR",
		"componentType":5123,
		"count":2496,
		"byteOffset":0,
		"min":[0],
		"max":[851]
	},
	{
		"bufferView":1,
		"type":"VEC3",
		"componentType":5126,
		"count":852,
		"byteOffset":0,
		"min":[9.193900108337403,
		0.0,
		-24.0],
		"max":[80.3809585571289,
		91.93900299072266,
		0.0]
	},
	{
		"bufferView":1,
		"type":"VEC3",
		"componentType":5126,
		"count":852,
		"byteOffset":12,
		"min":[-1.0,
		-1.0,
		-1.0],
		"max":[1.0,
		1.0,
		1.0]
	},
	{
		"bufferView":1,
		"type":"VEC2",
		"componentType":5126,
		"count":852,
		"byteOffset":24,
		"min":[0.0,
		0.0],
		"max":[1.0,
		1.0]
	},
	{
		"bufferView":2,
		"type":"SCALAR",
		"componentType":5123,
		"count":1260,
		"byteOffset":0,
		"min":[0],
		"max":[439]
	},
	{
		"bufferView":3,
		"type":"VEC3",
		"componentType":5126,
		"count":440,
		"byteOffset":0,
		"min":[7.61780309677124,
		0.0,
		-24.0],
		"max":[59.2349853515625,
		91.93900299072266,
		0.0]
	},
	{
		"bufferView":3,
		"type":"VEC3",
		"componentType":5126,
		"count":440,
		"byteOffset":12,
		"min":[-1.0,
		-1.0,
		-1.0],
		"max":[1.0,
		1.0,
		1.0]
	},
	{
		"bufferView":3,
		"type":"VEC2",
		"componentType":5126,
		"count":440,
		"byteOffset":24,
		"min":[0.0,
		0.0],
		"max":[1.0,
		1.0]
	},
	{
		"bufferView":4,
		"type":"SCALAR",
		"componentType":5123,
		"count":2520,
		"byteOffset":0,
		"min":[0],
		"max":[863]
	},
	{
		"bufferView":5,
		"type":"VEC3",
		"componentType":5126,
		"count":864,
		"byteOffset":0,
		"min":[0.0,
		0.0,
		-24.0],
		"max":[95.7479019165039,
		93.51509857177735,
		0.0]
	},
	{
		"bufferView":5,
		"type":"VEC3",
		"componentType":5126,
		"count":864,
		"byteOffset":12,
		"min":[-0.949913740158081,
		-1.0,
		-1.0],
		"max":[0.9445871710777283,
		1.0,
		1.0]
	},
	{
		"bufferView":5,
		"type":"VEC2",
		"componentType":5126,
		"count":864,
		"byteOffset":24,
		"min":[0.0,
		0.0],
		"max":[1.0,
		1.0]
	},
	{
		"bufferView":6,
		"type":"SCALAR",
		"componentType":5123,
		"count":2496,
		"byteOffset":0,
		"min":[0],
		"max":[859]
	},
	{
		"bufferView":7,
		"type":"VEC3",
		"componentType":5126,
		"count":860,
		"byteOffset":0,
		"min":[8.537193298339844,
		0.0,
		-24.0],
		"max":[84.9779052734375,
		91.93900299072266,
		0.0]
	},
	{
		"bufferView":7,
		"type":"VEC3",
		"componentType":5126,
		"count":860,
		"byteOffset":12,
		"min":[-1.0,
		-1.0,
		-1.0],
		"max":[1.0,
		1.0,
		1.0]
	},
	{
		"bufferView":7,
		"type":"VEC2",
		"componentType":5126,
		"count":860,
		"byteOffset":24,
		"min":[0.0,
		0.0],
		"max":[1.0,
		1.0]
	},
	{
		"bufferView":8,
		"type":"SCALAR",
		"componentType":5123,
		"count":20724,
		"byteOffset":0,
		"min":[0],
		"max":[3651]
	},
	{
		"bufferView":9,
		"type":"VEC3",
		"componentType":5126,
		"count":3652,
		"byteOffset":0,
		"min":[-239.68885803222657,
		-41.58591842651367,
		-106.87467193603516],
		"max":[239.68885803222657,
		41.58591842651367,
		106.87467193603516]
	},
	{
		"bufferView":9,
		"type":"VEC3",
		"componentType":5126,
		"count":3652,
		"byteOffset":12,
		"min":[-0.9996351599693298,
		-0.9996492862701416,
		-0.9996492862701416],
		"max":[0.9996492862701416,
		0.9996492862701416,
		0.9996492862701416]
	},
	{
		"bufferView":9,
		"type":"VEC2",
		"componentType":5126,
		"count":3652,
		"byteOffset":24,
		"min":[-0.07926943898200989,
		-0.4568854570388794],
		"max":[1.1777782440185547,
		1.4568853378295899]
	}],
	"bufferViews":[{
		"buffer":0,
		"byteOffset":0,
		"byteLength":4992,
		"target":34963
	},
	{
		"buffer":0,
		"byteOffset":4992,
		"byteLength":27264,
		"target":34962,
		"byteStride":32
	},
	{
		"buffer":1,
		"byteOffset":0,
		"byteLength":2520,
		"target":34963
	},
	{
		"buffer":1,
		"byteOffset":2520,
		"byteLength":14080,
		"target":34962,
		"byteStride":32
	},
	{
		"buffer":2,
		"byteOffset":0,
		"byteLength":5040,
		"target":34963
	},
	{
		"buffer":2,
		"byteOffset":5040,
		"byteLength":27648,
		"target":34962,
		"byteStride":32
	},
	{
		"buffer":3,
		"byteOffset":0,
		"byteLength":4992,
		"target":34963
	},
	{
		"buffer":3,
		"byteOffset":4992,
		"byteLength":27520,
		"target":34962,
		"byteStride":32
	},
	{
		"buffer":4,
		"byteOffset":0,
		"byteLength":41448,
		"target":34963
	},
	{
		"buffer":4,
		"byteOffset":41448,
		"byteLength":116864,
		"target":34962,
		"byteStride":32
	}],
	"buffers":[{
		"uri":"data:application/octet-stream;base64,",
		"byteLength":32256
	},
	{
		"uri":"data:application/octet-stream;base64,",
		"byteLength":16600
	},
	{
		"uri":"data:application/octet-stream;base64,",
		"byteLength":32688
	},
	{
		"uri":"data:application/octet-stream;base64,",
		"byteLength":32512
	},
	{
		"uri":"data:application/octet-stream;base64,",
		"byteLength":158312
	}]
}